<svg width="544" height="544" viewBox="0 0 544 544" fill="none" xmlns="http://www.w3.org/2000/svg">
<path d="M271.5 298.542C286.435 298.542 298.542 286.435 298.542 271.5C298.542 256.565 286.435 244.458 271.5 244.458C256.565 244.458 244.458 256.565 244.458 271.5C244.458 286.435 256.565 298.542 271.5 298.542Z" fill="white" fill-opacity="0.1"/>
<path d="M379.667 298.542C394.601 298.542 406.708 286.435 406.708 271.5C406.708 256.565 394.601 244.458 379.667 244.458C364.732 244.458 352.625 256.565 352.625 271.5C352.625 286.435 364.732 298.542 379.667 298.542Z" fill="white" fill-opacity="0.1"/>
<path d="M163.333 298.542C178.268 298.542 190.375 286.435 190.375 271.5C190.375 256.565 178.268 244.458 163.333 244.458C148.399 244.458 136.292 256.565 136.292 271.5C136.292 286.435 148.399 298.542 163.333 298.542Z" fill="white" fill-opacity="0.1"/>
<path d="M462.685 80.3154C418.315 35.6561 359.754 7.87652 297.098 1.76589C234.442 -4.34475 171.618 11.5965 119.455 46.8414C67.2928 82.0862 29.0616 134.426 11.3528 194.837C-6.356 255.248 -2.43273 319.945 22.4463 377.774C25.0393 383.149 25.8901 389.199 24.88 395.08L1.08335 509.467C0.16654 513.852 0.353755 518.397 1.62818 522.692C2.9026 526.987 5.2243 530.899 8.3846 534.075C10.9753 536.646 14.0599 538.667 17.4526 540.015C20.8452 541.363 24.4756 542.01 28.125 541.917H33.5333L149.272 518.661C155.154 517.954 161.119 518.792 166.578 521.095C224.407 545.974 289.104 549.897 349.515 532.188C409.926 514.479 462.266 476.248 497.511 424.086C532.755 371.923 548.697 309.099 542.586 246.443C536.476 183.787 508.696 125.226 464.037 80.8562L462.685 80.3154ZM485.129 306.384C479.842 338.671 467.301 369.339 448.448 396.078C429.596 422.818 404.925 444.934 376.29 460.761C347.656 476.588 315.805 485.714 283.134 487.452C250.463 489.191 217.823 483.496 187.671 470.797C176.977 466.248 165.489 463.859 153.869 463.766C148.792 463.802 143.728 464.254 138.725 465.118L62.4679 480.532L77.8817 404.275C80.9516 387.76 78.9726 370.703 72.2029 355.329C59.5039 325.177 53.8094 292.537 55.5478 259.866C57.2862 227.195 66.4123 195.344 82.2393 166.709C98.0662 138.075 120.182 113.404 146.922 94.5515C173.661 75.6994 204.329 63.1579 236.616 57.8708C270.507 52.3088 305.235 54.8955 337.927 65.4171C370.62 75.9386 400.338 94.0927 424.622 118.378C448.907 142.662 467.061 172.38 477.583 205.073C488.104 237.765 490.691 272.493 485.129 306.384Z" fill="white" fill-opacity="0.1"/>
</svg>
