<svg width="24" height="25" viewBox="0 0 24 25" fill="none" xmlns="http://www.w3.org/2000/svg">
<path d="M17 2.85205H7C4.23858 2.85205 2 5.09674 2 7.86571V17.893C2 20.662 4.23858 22.9067 7 22.9067H17C19.7614 22.9067 22 20.662 22 17.893V7.86571C22 5.09674 19.7614 2.85205 17 2.85205Z" stroke="white" stroke-width="2" stroke-linecap="round" stroke-linejoin="round"/>
<path d="M16 12.2478C16.1234 13.0823 15.9813 13.9346 15.5938 14.6834C15.2063 15.4323 14.5932 16.0395 13.8416 16.4188C13.0901 16.7981 12.2385 16.9301 11.4078 16.7961C10.5771 16.6621 9.80977 16.2688 9.21485 15.6723C8.61993 15.0757 8.22774 14.3063 8.09408 13.4733C7.96042 12.6404 8.09208 11.7864 8.47034 11.0329C8.8486 10.2793 9.4542 9.66449 10.201 9.27594C10.9478 8.88738 11.7978 8.74484 12.63 8.86858C13.4789 8.99481 14.2649 9.39147 14.8717 9.99997C15.4785 10.6085 15.8741 11.3965 16 12.2478Z" stroke="white" stroke-width="2" stroke-linecap="round" stroke-linejoin="round"/>
<path d="M17.5 7.3645H17.51" stroke="white" stroke-width="2" stroke-linecap="round" stroke-linejoin="round"/>
</svg>
