<svg width="21" height="21" viewBox="0 0 21 21" fill="none" xmlns="http://www.w3.org/2000/svg">
<circle cx="10.5" cy="10.5" r="10" stroke="#8E8E8E"/>
<path d="M13.4 13.13V14H8.37V13.32L11.22 10.57C11.5667 10.2367 11.8 9.95 11.92 9.71C12.04 9.46333 12.1 9.21667 12.1 8.97C12.1 8.60333 11.97 8.32 11.71 8.12C11.4567 7.91333 11.09 7.81 10.61 7.81C9.83667 7.81 9.24 8.06333 8.82 8.57L8.14 7.98C8.41333 7.64667 8.77 7.38667 9.21 7.2C9.65667 7.01333 10.1533 6.92 10.7 6.92C11.4333 6.92 12.0167 7.09667 12.45 7.45C12.8833 7.79667 13.1 8.27 13.1 8.87C13.1 9.24333 13.02 9.59667 12.86 9.93C12.7 10.2633 12.3967 10.6433 11.95 11.07L9.81 13.13H13.4Z" fill="#8E8E8E"/>
</svg>
