<svg width="24" height="26" viewBox="0 0 24 26" fill="none" xmlns="http://www.w3.org/2000/svg">
<path d="M22 17.9335V20.9417C22.0012 21.221 21.9441 21.4974 21.8325 21.7533C21.721 22.0092 21.5573 22.2388 21.3521 22.4276C21.1469 22.6164 20.9046 22.7602 20.6408 22.8496C20.3769 22.9391 20.0974 22.9723 19.82 22.9472C16.7429 22.6119 13.787 21.5575 11.19 19.8688C8.77385 18.3293 6.72536 16.2752 5.19002 13.8524C3.5 11.2365 2.44827 8.25815 2.12002 5.15871C2.09504 4.88142 2.1279 4.60195 2.21653 4.3381C2.30515 4.07424 2.4476 3.83178 2.63479 3.62616C2.82199 3.42053 3.04983 3.25624 3.30382 3.14374C3.5578 3.03125 3.83237 2.97302 4.11002 2.97275H7.11002C7.59533 2.96796 8.06582 3.14029 8.43379 3.45761C8.80176 3.77493 9.0421 4.21559 9.11002 4.69745C9.23665 5.66014 9.47147 6.60538 9.81003 7.51513C9.94457 7.87403 9.97369 8.26409 9.89393 8.63907C9.81418 9.01406 9.62889 9.35826 9.36002 9.6309L8.09002 10.9044C9.51358 13.4148 11.5865 15.4933 14.09 16.9208L15.36 15.6473C15.6319 15.3777 15.9752 15.1919 16.3491 15.1119C16.7231 15.032 17.1121 15.0612 17.47 15.1961C18.3773 15.5355 19.32 15.771 20.28 15.898C20.7658 15.9667 21.2094 16.212 21.5266 16.5873C21.8437 16.9627 22.0122 17.4418 22 17.9335Z" stroke="white" stroke-width="1.5" stroke-linecap="round" stroke-linejoin="round"/>
</svg>
