<?xml version="1.0" encoding="UTF-8" standalone="no"?>
<!DOCTYPE svg PUBLIC "-//W3C//DTD SVG 1.1//EN" "http://www.w3.org/Graphics/SVG/1.1/DTD/svg11.dtd">
<svg width="100%" height="100%" viewBox="0 0 24 24" version="1.1" xmlns="http://www.w3.org/2000/svg" xmlns:xlink="http://www.w3.org/1999/xlink" xml:space="preserve" xmlns:serif="http://www.serif.com/" style="fill-rule:evenodd;clip-rule:evenodd;stroke-linecap:round;stroke-linejoin:round;">
    <path d="M12,2C6.477,2 2,6.477 2,12C2,17.523 6.477,22 12,22C17.523,22 22,17.523 22,12C22,6.477 17.523,2 12,2Z" style="fill:none;fill-rule:nonzero;stroke:white;stroke-width:1px;"/>
    <path d="M4.271,18.346C4.271,18.346 6.5,15.5 12,15.5C17.5,15.5 19.73,18.346 19.73,18.346" style="fill:none;fill-rule:nonzero;stroke:white;stroke-width:1px;"/>
    <path d="M12,12C12.796,12 13.559,11.684 14.121,11.121C14.684,10.559 15,9.796 15,9C15,8.204 14.684,7.441 14.121,6.879C13.559,6.316 12.796,6 12,6C11.204,6 10.441,6.316 9.879,6.879C9.316,7.441 9,8.204 9,9C9,9.796 9.316,10.559 9.879,11.121C10.441,11.684 11.204,12 12,12Z" style="fill:none;fill-rule:nonzero;stroke:white;stroke-width:1px;"/>
</svg>
